<mxfile host="app.diagrams.net" modified="2023-12-24T15:06:41.319Z" agent="Mozilla/5.0 (Macintosh; Intel Mac OS X 10_15_7) AppleWebKit/605.1.15 (KHTML, like Gecko) Version/16.4 Safari/605.1.15" etag="1zAO8g8hQXCqeM3zBuSt" version="22.1.11" type="device">
  <diagram name="Страница — 1" id="h5QnTa0mfggDWUjwVejR">
    <mxGraphModel dx="1781" dy="647" grid="1" gridSize="10" guides="1" tooltips="1" connect="1" arrows="1" fold="1" page="1" pageScale="1" pageWidth="827" pageHeight="1169" math="0" shadow="0">
      <root>
        <mxCell id="0" />
        <mxCell id="1" parent="0" />
        <mxCell id="8Rq6C5g60bl-sIP2GMw7-1" value="Admin&lt;br&gt;" style="shape=umlActor;verticalLabelPosition=bottom;verticalAlign=top;html=1;outlineConnect=0;" vertex="1" parent="1">
          <mxGeometry x="340" y="180" width="40" height="80" as="geometry" />
        </mxCell>
        <mxCell id="8Rq6C5g60bl-sIP2GMw7-2" value="Registration" style="ellipse;whiteSpace=wrap;html=1;" vertex="1" parent="1">
          <mxGeometry x="430" y="120" width="110" height="80" as="geometry" />
        </mxCell>
        <mxCell id="8Rq6C5g60bl-sIP2GMw7-3" value="add movie" style="ellipse;whiteSpace=wrap;html=1;" vertex="1" parent="1">
          <mxGeometry x="550" y="220" width="120" height="80" as="geometry" />
        </mxCell>
        <mxCell id="8Rq6C5g60bl-sIP2GMw7-4" value="Sell a ticket&amp;nbsp;" style="ellipse;whiteSpace=wrap;html=1;" vertex="1" parent="1">
          <mxGeometry x="80" y="190" width="120" height="80" as="geometry" />
        </mxCell>
        <mxCell id="8Rq6C5g60bl-sIP2GMw7-5" value="Return a ticket" style="ellipse;whiteSpace=wrap;html=1;" vertex="1" parent="1">
          <mxGeometry x="130" y="310" width="120" height="80" as="geometry" />
        </mxCell>
        <mxCell id="8Rq6C5g60bl-sIP2GMw7-6" value="remove movie" style="ellipse;whiteSpace=wrap;html=1;" vertex="1" parent="1">
          <mxGeometry x="400" y="400" width="120" height="80" as="geometry" />
        </mxCell>
        <mxCell id="8Rq6C5g60bl-sIP2GMw7-7" value="edit movie" style="ellipse;whiteSpace=wrap;html=1;" vertex="1" parent="1">
          <mxGeometry x="270" y="360" width="120" height="80" as="geometry" />
        </mxCell>
        <mxCell id="8Rq6C5g60bl-sIP2GMw7-8" value="add session" style="ellipse;whiteSpace=wrap;html=1;" vertex="1" parent="1">
          <mxGeometry x="410" y="280" width="120" height="80" as="geometry" />
        </mxCell>
        <mxCell id="8Rq6C5g60bl-sIP2GMw7-9" value="change time" style="ellipse;whiteSpace=wrap;html=1;" vertex="1" parent="1">
          <mxGeometry x="80" y="410" width="120" height="80" as="geometry" />
        </mxCell>
        <mxCell id="8Rq6C5g60bl-sIP2GMw7-10" value="show available seats&lt;br&gt;" style="ellipse;whiteSpace=wrap;html=1;" vertex="1" parent="1">
          <mxGeometry x="90" y="585" width="120" height="80" as="geometry" />
        </mxCell>
        <mxCell id="8Rq6C5g60bl-sIP2GMw7-13" value="find movie by id&lt;br&gt;" style="ellipse;whiteSpace=wrap;html=1;" vertex="1" parent="1">
          <mxGeometry x="600" y="340" width="120" height="80" as="geometry" />
        </mxCell>
        <mxCell id="8Rq6C5g60bl-sIP2GMw7-14" value="find session by id" style="ellipse;whiteSpace=wrap;html=1;" vertex="1" parent="1">
          <mxGeometry x="-70" y="320" width="120" height="80" as="geometry" />
        </mxCell>
        <mxCell id="8Rq6C5g60bl-sIP2GMw7-16" value="" style="endArrow=classic;html=1;rounded=0;entryX=0;entryY=1;entryDx=0;entryDy=0;exitX=1;exitY=0.3333333333333333;exitDx=0;exitDy=0;exitPerimeter=0;" edge="1" parent="1" source="8Rq6C5g60bl-sIP2GMw7-1" target="8Rq6C5g60bl-sIP2GMw7-2">
          <mxGeometry width="50" height="50" relative="1" as="geometry">
            <mxPoint x="250" y="470" as="sourcePoint" />
            <mxPoint x="300" y="420" as="targetPoint" />
          </mxGeometry>
        </mxCell>
        <mxCell id="8Rq6C5g60bl-sIP2GMw7-17" value="" style="endArrow=classic;html=1;rounded=0;exitX=1;exitY=1;exitDx=0;exitDy=0;exitPerimeter=0;entryX=0.042;entryY=0.263;entryDx=0;entryDy=0;entryPerimeter=0;" edge="1" parent="1" source="8Rq6C5g60bl-sIP2GMw7-1" target="8Rq6C5g60bl-sIP2GMw7-8">
          <mxGeometry width="50" height="50" relative="1" as="geometry">
            <mxPoint x="250" y="390" as="sourcePoint" />
            <mxPoint x="300" y="340" as="targetPoint" />
          </mxGeometry>
        </mxCell>
        <mxCell id="8Rq6C5g60bl-sIP2GMw7-19" value="include" style="endArrow=classic;html=1;rounded=0;entryX=0.017;entryY=0.375;entryDx=0;entryDy=0;entryPerimeter=0;exitX=1.008;exitY=0.713;exitDx=0;exitDy=0;exitPerimeter=0;dashed=1;dashPattern=8 8;" edge="1" parent="1" source="8Rq6C5g60bl-sIP2GMw7-8" target="8Rq6C5g60bl-sIP2GMw7-13">
          <mxGeometry width="50" height="50" relative="1" as="geometry">
            <mxPoint x="250" y="390" as="sourcePoint" />
            <mxPoint x="300" y="340" as="targetPoint" />
          </mxGeometry>
        </mxCell>
        <mxCell id="8Rq6C5g60bl-sIP2GMw7-20" value="" style="endArrow=classic;html=1;rounded=0;" edge="1" parent="1" source="8Rq6C5g60bl-sIP2GMw7-1" target="8Rq6C5g60bl-sIP2GMw7-6">
          <mxGeometry width="50" height="50" relative="1" as="geometry">
            <mxPoint x="250" y="390" as="sourcePoint" />
            <mxPoint x="300" y="340" as="targetPoint" />
          </mxGeometry>
        </mxCell>
        <mxCell id="8Rq6C5g60bl-sIP2GMw7-21" value="include" style="endArrow=classic;html=1;rounded=0;entryX=0.05;entryY=0.713;entryDx=0;entryDy=0;entryPerimeter=0;exitX=0.95;exitY=0.325;exitDx=0;exitDy=0;exitPerimeter=0;dashed=1;dashPattern=8 8;" edge="1" parent="1" source="8Rq6C5g60bl-sIP2GMw7-6" target="8Rq6C5g60bl-sIP2GMw7-13">
          <mxGeometry x="-0.0047" width="50" height="50" relative="1" as="geometry">
            <mxPoint x="250" y="390" as="sourcePoint" />
            <mxPoint x="300" y="340" as="targetPoint" />
            <mxPoint as="offset" />
          </mxGeometry>
        </mxCell>
        <mxCell id="8Rq6C5g60bl-sIP2GMw7-22" value="" style="endArrow=classic;html=1;rounded=0;entryX=0;entryY=0.5;entryDx=0;entryDy=0;exitX=1;exitY=0.3333333333333333;exitDx=0;exitDy=0;exitPerimeter=0;" edge="1" parent="1" source="8Rq6C5g60bl-sIP2GMw7-1" target="8Rq6C5g60bl-sIP2GMw7-3">
          <mxGeometry width="50" height="50" relative="1" as="geometry">
            <mxPoint x="250" y="390" as="sourcePoint" />
            <mxPoint x="300" y="340" as="targetPoint" />
          </mxGeometry>
        </mxCell>
        <mxCell id="8Rq6C5g60bl-sIP2GMw7-23" value="" style="endArrow=classic;html=1;rounded=0;exitX=0;exitY=1;exitDx=0;exitDy=0;exitPerimeter=0;entryX=0.5;entryY=0;entryDx=0;entryDy=0;" edge="1" parent="1" source="8Rq6C5g60bl-sIP2GMw7-1" target="8Rq6C5g60bl-sIP2GMw7-7">
          <mxGeometry width="50" height="50" relative="1" as="geometry">
            <mxPoint x="250" y="390" as="sourcePoint" />
            <mxPoint x="300" y="340" as="targetPoint" />
          </mxGeometry>
        </mxCell>
        <mxCell id="8Rq6C5g60bl-sIP2GMw7-24" value="include" style="endArrow=classic;html=1;rounded=0;entryX=0;entryY=0.613;entryDx=0;entryDy=0;entryPerimeter=0;dashed=1;dashPattern=12 12;" edge="1" parent="1" target="8Rq6C5g60bl-sIP2GMw7-13">
          <mxGeometry width="50" height="50" relative="1" as="geometry">
            <mxPoint x="390" y="389" as="sourcePoint" />
            <mxPoint x="300" y="340" as="targetPoint" />
          </mxGeometry>
        </mxCell>
        <mxCell id="8Rq6C5g60bl-sIP2GMw7-25" value="" style="endArrow=classic;html=1;rounded=0;exitX=0;exitY=0.3333333333333333;exitDx=0;exitDy=0;exitPerimeter=0;entryX=0.942;entryY=0.738;entryDx=0;entryDy=0;entryPerimeter=0;" edge="1" parent="1" source="8Rq6C5g60bl-sIP2GMw7-1" target="8Rq6C5g60bl-sIP2GMw7-4">
          <mxGeometry width="50" height="50" relative="1" as="geometry">
            <mxPoint x="250" y="390" as="sourcePoint" />
            <mxPoint x="300" y="340" as="targetPoint" />
          </mxGeometry>
        </mxCell>
        <mxCell id="8Rq6C5g60bl-sIP2GMw7-26" value="" style="endArrow=classic;html=1;rounded=0;" edge="1" parent="1" target="8Rq6C5g60bl-sIP2GMw7-5">
          <mxGeometry width="50" height="50" relative="1" as="geometry">
            <mxPoint x="330" y="210" as="sourcePoint" />
            <mxPoint x="300" y="340" as="targetPoint" />
          </mxGeometry>
        </mxCell>
        <mxCell id="8Rq6C5g60bl-sIP2GMw7-27" value="" style="endArrow=classic;html=1;rounded=0;entryX=1;entryY=0.5;entryDx=0;entryDy=0;" edge="1" parent="1" target="8Rq6C5g60bl-sIP2GMw7-9">
          <mxGeometry width="50" height="50" relative="1" as="geometry">
            <mxPoint x="330" y="210" as="sourcePoint" />
            <mxPoint x="204" y="459" as="targetPoint" />
          </mxGeometry>
        </mxCell>
        <mxCell id="8Rq6C5g60bl-sIP2GMw7-28" value="include" style="endArrow=classic;html=1;rounded=0;dashed=1;dashPattern=8 8;" edge="1" parent="1" source="8Rq6C5g60bl-sIP2GMw7-4" target="8Rq6C5g60bl-sIP2GMw7-14">
          <mxGeometry width="50" height="50" relative="1" as="geometry">
            <mxPoint x="250" y="390" as="sourcePoint" />
            <mxPoint x="300" y="340" as="targetPoint" />
          </mxGeometry>
        </mxCell>
        <mxCell id="8Rq6C5g60bl-sIP2GMw7-29" value="include" style="endArrow=classic;html=1;rounded=0;exitX=0;exitY=0.5;exitDx=0;exitDy=0;entryX=1.008;entryY=0.6;entryDx=0;entryDy=0;entryPerimeter=0;dashed=1;" edge="1" parent="1" source="8Rq6C5g60bl-sIP2GMw7-5" target="8Rq6C5g60bl-sIP2GMw7-14">
          <mxGeometry width="50" height="50" relative="1" as="geometry">
            <mxPoint x="250" y="390" as="sourcePoint" />
            <mxPoint x="300" y="340" as="targetPoint" />
          </mxGeometry>
        </mxCell>
        <mxCell id="8Rq6C5g60bl-sIP2GMw7-30" value="include" style="endArrow=classic;html=1;rounded=0;entryX=0.917;entryY=0.875;entryDx=0;entryDy=0;entryPerimeter=0;dashed=1;" edge="1" parent="1" source="8Rq6C5g60bl-sIP2GMw7-9" target="8Rq6C5g60bl-sIP2GMw7-14">
          <mxGeometry width="50" height="50" relative="1" as="geometry">
            <mxPoint x="250" y="390" as="sourcePoint" />
            <mxPoint x="300" y="340" as="targetPoint" />
          </mxGeometry>
        </mxCell>
        <mxCell id="8Rq6C5g60bl-sIP2GMw7-31" value="tag a visitor" style="ellipse;whiteSpace=wrap;html=1;" vertex="1" parent="1">
          <mxGeometry x="250" y="540" width="120" height="80" as="geometry" />
        </mxCell>
        <mxCell id="8Rq6C5g60bl-sIP2GMw7-32" value="" style="endArrow=classic;html=1;rounded=0;exitX=0;exitY=1;exitDx=0;exitDy=0;exitPerimeter=0;entryX=0.325;entryY=-0.037;entryDx=0;entryDy=0;entryPerimeter=0;" edge="1" parent="1" source="8Rq6C5g60bl-sIP2GMw7-1" target="8Rq6C5g60bl-sIP2GMw7-10">
          <mxGeometry width="50" height="50" relative="1" as="geometry">
            <mxPoint x="250" y="390" as="sourcePoint" />
            <mxPoint x="300" y="340" as="targetPoint" />
          </mxGeometry>
        </mxCell>
        <mxCell id="8Rq6C5g60bl-sIP2GMw7-33" value="" style="endArrow=classic;html=1;rounded=0;entryX=0.208;entryY=0.125;entryDx=0;entryDy=0;entryPerimeter=0;" edge="1" parent="1" target="8Rq6C5g60bl-sIP2GMw7-31">
          <mxGeometry width="50" height="50" relative="1" as="geometry">
            <mxPoint x="340" y="260" as="sourcePoint" />
            <mxPoint x="300" y="340" as="targetPoint" />
            <Array as="points">
              <mxPoint x="220" y="510" />
              <mxPoint x="220" y="550" />
            </Array>
          </mxGeometry>
        </mxCell>
        <mxCell id="8Rq6C5g60bl-sIP2GMw7-34" value="include" style="endArrow=classic;html=1;rounded=0;exitX=0.1;exitY=0.238;exitDx=0;exitDy=0;exitPerimeter=0;entryX=0.558;entryY=1.038;entryDx=0;entryDy=0;entryPerimeter=0;dashed=1;dashPattern=12 12;" edge="1" parent="1" source="8Rq6C5g60bl-sIP2GMw7-10" target="8Rq6C5g60bl-sIP2GMw7-14">
          <mxGeometry width="50" height="50" relative="1" as="geometry">
            <mxPoint x="250" y="390" as="sourcePoint" />
            <mxPoint x="300" y="340" as="targetPoint" />
          </mxGeometry>
        </mxCell>
        <mxCell id="8Rq6C5g60bl-sIP2GMw7-35" value="include" style="endArrow=classic;html=1;rounded=0;exitX=0;exitY=0.5;exitDx=0;exitDy=0;entryX=0.667;entryY=1;entryDx=0;entryDy=0;entryPerimeter=0;dashed=1;dashPattern=8 8;" edge="1" parent="1" source="8Rq6C5g60bl-sIP2GMw7-31" target="8Rq6C5g60bl-sIP2GMw7-14">
          <mxGeometry width="50" height="50" relative="1" as="geometry">
            <mxPoint x="250" y="390" as="sourcePoint" />
            <mxPoint x="300" y="340" as="targetPoint" />
            <Array as="points">
              <mxPoint x="80" y="520" />
            </Array>
          </mxGeometry>
        </mxCell>
      </root>
    </mxGraphModel>
  </diagram>
</mxfile>
